<?xml version="1.0" standalone="no"?>
<!DOCTYPE svg PUBLIC "-//W3C//DTD SVG 1.1//EN" "http://www.w3.org/Graphics/SVG/1.1/DTD/svg11.dtd" >
<!--
2013-9-30: Created.
-->
<svg>
<metadata>
Created by iconfont
</metadata>
<defs>

<font id="iconfont" horiz-adv-x="1024" >
  <font-face
    font-family="iconfont"
    font-weight="500"
    font-stretch="normal"
    units-per-em="1024"
    ascent="896"
    descent="-128"
  />
    <missing-glyph />
    
    <glyph glyph-name="pdf" unicode="&#58881;" d="M948.257005 639.024406L728.878626 873.901258C715.579936 887.999868 697.081759 896.09907 677.683671 895.99908H85.142069C69.643596 895.99908 57.044838 883.400322 57.044838 867.901849V-99.902769c0-15.498473 12.598758-28.097231 28.097231-28.097231h854.015833c15.398482 0.09999 27.79726 12.598758 27.79726 28.097231V591.329107c0 17.698256-6.69934 34.69658-18.698157 47.695299z m-45.095556-711.029925H121.438492c-3.799626 0-6.89932 3.099695-6.89932 6.899321v0.09999l0.699931 896.811615c0 3.799626 3.099695 6.99931 6.89932 6.99931h524.048352c3.099695 0 5.699438-2.499754 5.699439-5.699438v-241.976153c0-15.498473 12.598758-28.097231 27.99724-28.09723h224.277897c3.099695 0 5.699438-2.499754 5.699438-5.699439v-622.038695l0.29997-0.29997c-0.09999-3.899616-3.099695-6.99931-6.99931-6.999311zM786.372959 262.761489h0.299971c-22.397793 14.898532-49.395132 21.397891-76.092501 18.198206-28.397201-0.09999-56.794403-2.199783-84.991624-6.099399l-1.399862 0.699931c-12.898729 6.79933-24.897546 15.198502-35.696482 24.897546-31.396906 30.197024-55.494531 67.193378-70.593042 108.089348 0.899911 3.399665 1.599842 6.89932 2.199783 10.398975 8.499162 43.795684 12.798739 88.391289 12.898729 132.986893-0.399961 2.999704-1.099892 5.999409-2.199784 8.799133l-1.999803 12.898729c-4.299576 16.298394-17.298295 28.797162-33.796669 32.396807h-8.999113c-18.198206-1.599842-33.496699-14.198601-38.496206-31.796866-6.89932-59.194166-0.29997-119.088263 19.498079-175.282725l-4.399567-12.098808c-13.89863-33.296718-30.696975-67.693329-46.895378-99.090234l-1.899813-4.299576c-13.69865-26.997339-26.697369-50.595014-38.296226-71.192984l-5.199487-9.199093-12.498768-6.299379s-25.397497-12.898729-30.596985-17.098315c-39.296127-17.798246-70.393062-49.795092-87.091417-89.491181-3.699635-11.198896 0.799921-23.397694 10.798936-29.597083l13.39868-6.99931c6.399369-3.499655 13.59866-5.299478 20.89794-5.199487 35.796472 0 76.192491 42.195841 130.8871 136.586538 62.193871 20.098019 125.987583 35.096541 190.581218 44.795586 43.895674-25.197517 92.890845-40.496009 143.385868-44.595605 6.199389-0.09999 12.298788 0.599941 18.298197 2.199783 8.199192 1.999803 15.398482 6.99931 20.098019 13.99862 7.499261 13.198699 10.099005 28.597182 7.299281 43.495714-0.599941 7.0993-3.899616 13.59866-9.399074 17.898236zM278.22304 80.279473c16.098413 30.796965 38.596196 57.794304 66.193476 78.992215 1.899813 1.899813 7.699241 7.0993 12.898729 12.198798-18.098216-36.796374-45.395526-68.193279-79.092205-91.191013z m215.878724 479.852708l0.09999 0.199981c6.299379-13.89863 9.299084-28.997142 8.799133-44.195645 0.399961-12.998719-1.499852-25.997438-5.699438-38.396216-2.999704 17.398285-4.599547 35.096541-4.699537 52.694807-0.09999 9.899024 0.399961 19.798049 1.499852 29.697073z m-53.294748-328.467628c5.699438 9.899024 10.698946 19.598069 15.398483 29.097133 15.398482 29.597083 27.49729 55.394541 36.896364 78.592254 16.698354-28.397201 38.196236-53.694708 63.593732-74.792629l0.699931-0.599941c-39.496107-8.299182-78.392274-19.098118-116.58851-32.296817z m312.069245-5.699438c-17.998226 1.299872-35.596492 5.699438-52.094866 13.098709h9.599054c14.698551 0.799921 29.497093-0.799921 43.695693-4.899517 4.999507-0.599941 9.599054-2.899714 13.098709-6.499359-4.699537-1.099892-9.499064-1.699832-14.29859-1.699833z"  horiz-adv-x="1024" />

    
    <glyph glyph-name="pic" unicode="&#58882;" d="M948.2 639.1L728.7 873.9C715.6 888 697.3 896 678.1 896H84.9C69.5 895.9 57 883.4 57 868v-968c0-15.4 12.5-27.9 27.9-28h854.3c15.4 0.1 27.9 12.6 27.9 28V591.6c-0.2 17.6-6.9 34.6-18.9 47.5z m-38.6-703.9c0.1-3.7-2.8-6.9-6.5-7H121.3c-3.7 0-6.8 3-6.8 6.7v0.3l0.5 896.6c-0.1 3.7 2.8 6.9 6.5 7H645.6c3.1 0 5.7-2.5 5.7-5.7v-241.9c0.2-15.6 12.9-28 28.4-28h224.1c3.1 0 5.7-2.5 5.7-5.7v-621.9l0.1-0.4z m-215 408.5c33.1 0.2 59.8 27.2 59.6 60.3-0.2 33.1-27.2 59.8-60.3 59.6-33-0.2-59.6-27-59.6-60-0.1-33.1 26.7-59.9 59.7-60 0.2 0.1 0.4 0.1 0.6 0.1z m-92.7-8.6c-5.7 8.8-17.4 11.3-26.2 5.7-2.3-1.5-4.2-3.4-5.7-5.7L541 297l-57.4 103.3c-5 16.7-22.5 26.1-39.1 21.2-10.2-3-18.1-11-21.2-21.2L271.4 126.8c-1-1.8-1.8-3.7-2.3-5.7L256 99.6h523.2L601.9 335.1z"  horiz-adv-x="1024" />

    
    <glyph glyph-name="ppt" unicode="&#58883;" d="M671.8 468.1c-33.7 19.6-72.6 28.4-111.5 25.4H350.5l-56.3-459.8h100.1L410.8 164h107.5c45.5-3.5 90.8 8.5 128.5 34.1 31.5 30.4 50.1 71.9 51.8 115.7l4 32.6c0.6 3.2 1.1 8.3 2.8 15.4l-0.6 20.8c3.5 32.2-8.8 64-33 85.5zM601.3 344l-3.4-28.4c-0.9-20.3-8.1-39.8-20.5-55.9-15.4-11.2-34.5-16.3-53.5-14.3h-104l20.5 166.9H537c17 1.4 34-2.8 48.3-11.9a47.42 47.42 0 0 0 15.9-40.3V344z m346.9 295.1L728.7 873.9C715.6 888 697.3 896 678.1 896H84.9C69.5 895.9 57 883.4 57 868v-968c0-15.4 12.5-27.9 27.9-28h854.3c15.4 0.1 27.9 12.6 27.9 28V591.5c-0.2 17.7-6.9 34.7-18.9 47.6z m-38.1-704c-0.1-4-3.4-7.1-7.4-7H121.3c-4-0.1-7.3 3-7.4 7L115 831.8c-0.1 3.7 2.8 6.9 6.5 7H645.6c3.1 0 5.7-2.5 5.7-5.7V590.9c0.3-15.5 12.9-28 28.4-28h224.1c3.3 0.1 6-2.4 6.3-5.7V-64.9z"  horiz-adv-x="1024" />

    
    <glyph glyph-name="word" unicode="&#58884;" d="M613.899791 105.699521l-34.999928 362.399257H470.300086L340.700351 105.499521l0.599999 362.699256h-91.099813l11.399977-414.999149h144.699703L511.000002 372.298974l23.999951-319.199345h142.999707l118.799756 415.099148H706.9996l-93.099809-362.499256z m325.399333 564.898841S821.099366 804.298088 770.099471 861.597971C754.599502 881.29793 731.59955 893.697905 706.499601 895.9979h-616.998735C71.800903 896.1979 57.200933 882.097929 57.000933 864.397965v-960.59803c0.299999-17.699964 14.69997-31.799935 32.399934-31.699935h845.198266c17.699964-0.2 32.199934 13.999971 32.399934 31.599935V606.498494c-1.499997 23.999951-11.299977 46.599904-27.699943 64.099868z m-30.799937-740.89848h-792.998374V838.398018h558.998854v-215.799557c0.2-25.799947 21.299956-46.699904 47.199903-46.499905H908.499187v-646.398674z"  horiz-adv-x="1024" />

    
    <glyph glyph-name="class-schedule" unicode="&#58885;" d="M911.32864 895.5H112.72864C56.12864 900.9 5.92864 859.4 0.52864 802.9c-0.3-3.3-0.5-6.5-0.5-9.7v-153.5h1024V775.8C1025.32864 839.7 975.32864 893 911.32864 895.5zM0.02864-8.200000000000045c-1.4-63.9 48.7-117.2 112.6-119.8h798.7c63.9 2.6 114 55.9 112.6 119.8V536.2H0.02864v-544.4z m768 443.1h153.6v-153.5H768.02864V434.9z m-307.2 0h153.6v-153.5H460.82864V434.9z m0-255.8h153.6v-153.5H460.82864V179.10000000000002zM153.62864 434.9h153.6v-153.5H153.62864V434.9z m0-255.8h153.6v-153.5H153.62864V179.10000000000002z"  horiz-adv-x="1024" />

    
    <glyph glyph-name="recommend-teachers" unicode="&#58886;" d="M195.20616 434.308977c-66.898699 1.099979-121.997628-52.098987-123.197605-118.897688v-323.793705c0.699986-66.798701 55.498921-120.297661 122.39762-119.597674h286.794424l-189.996306 562.189069-95.998133 0.099998z m633.58768 0h-95.898135L544.599366-127.98009000000002h284.194474c66.798701-1.199977 121.997628 51.998989 123.197605 118.79769V314.211312c-0.49999 66.798701-55.198927 120.597655-122.097626 119.997667-0.399992 0.099998-0.699986 0.099998-1.099979 0.099998z m30.799402-375.892692H703.796271c-9.099823 0-16.499679 7.399856-16.499679 16.49968s7.399856 16.499679 16.499679 16.499679h155.796971c9.199821 0.099998 16.799673-7.099862 17.099667-16.299683-0.699986-8.999825-7.999844-16.199685-17.099667-16.699676zM739.695573 662.00455C743.295503 787.602108 644.297428 892.300072 518.499874 895.900002c-125.797554 3.59993-230.595516-95.398145-234.195447-220.995703S379.80257 444.508779 505.500126 441.008847c2.199957-0.099998 4.299916-0.099998 6.499874-0.099998 123.897591-1.799965 225.895608 96.998114 227.695573 220.795706v0.299995zM512 405.709533l-111.297836-91.398223 111.297836-330.993564 111.297836 330.993564L512 405.709533z"  horiz-adv-x="1024" />

    
    <glyph glyph-name="demand-courses" unicode="&#58887;" d="M841.60254-86H162.90254c-19.6 0-35.4 15.9-35.4 35.5s15.9 35.5 35.4 35.5h678.7c19.4-0.3 34.9-16.1 34.9-35.5 0.2-19.4-15.2-35.2-34.6-35.5h-0.3z m77.6 940H104.70254C46.50254 853.6-0.39746 806.1 0.00254 747.7v-534.6c8.6-66.9 61.2-119.5 128-128.2h768c66.8 8.7 119.3 61.3 128 128.2V747.6c0.4 58.3-46.5 106-104.8 106.4 0.1 0 0 0 0 0zM670.70254 466.9L397.40254 306.70000000000005c-7.5-4.3-17.1-1.6-21.4 6-1.3 2.4-2 5-2 7.7v320c-0.2 8.7 6.7 15.9 15.4 16.1 2.8 0.1 5.6-0.6 8-2l273.3-160.2c7.5-4.4 10.1-14.1 5.6-21.7-1.3-2.4-3.3-4.3-5.6-5.7z"  horiz-adv-x="1024" />

    
    <glyph glyph-name="recent-visitors" unicode="&#58888;" d="M796.547506 556.19559c73.399527-0.699995 133.39914 58.099626 134.199135 131.499153 0.699995 73.399527-58.099626 133.49914-131.499152 134.199135S665.848349 763.794252 665.048354 690.394725v-0.599996c-0.699995-73.099529 57.899627-132.899143 130.899156-133.599139h0.599996z m-465.297001-71.699538c113.599268-0.899994 206.39867 90.399417 207.398664 203.998685C539.649162 802.1940050000001 448.349751 894.993406 334.750483 895.9934 221.151215 896.893394 128.251814 805.593983 127.35182 691.994715v-1.699989C126.851823 577.095455 218.051235 484.996049 331.150506 484.496052h0.099999z m290.398129-162.398953c-30.899801 64.699583-86.699441 114.099265-154.699003 136.799118 0 0 0-0.499997-0.299998-0.499997-0.399997 0.299998-0.799995 0.399997-1.199993 0.499997h-0.599996c-2.499984-1.699989-5.099967-3.299979-7.799949-4.699969-74.999517-33.499784-160.698964-33.499784-235.698481 0-4.69997 2.799982-7.499952 4.199973-7.899949 4.699969h-0.599997c-0.399997-0.099999-0.799995-0.199999-1.199992-0.499997 0 0 0 0.499997-0.299998 0.499997-67.999562-22.799853-123.799202-72.199535-154.699003-136.799118A427.047248 427.047248 0 0 1 1.952628 141.89826000000005c-2.699983-37.999755-2.599983-76.09951 0.299998-113.999265 158.098981-186.098801 436.997183-208.798654 623.095984-50.699673 18.199883 15.4999 35.199773 32.399791 50.599674 50.699673 2.899981 37.999755 2.999981 76.09951 0.299998 113.999265-4.499971 63.399591-23.099851 124.899195-54.599648 180.198839z m265.19829 201.998698h-0.599996c-51.599667-25.999832-112.499275-25.999832-164.098942 0-51.699667-17.699886-92.199406-58.199625-109.999291-109.899292 68.999555-67.699564 109.899292-158.998975 114.299263-255.498353 107.09931-32.499791 223.198561 1.699989 295.598095 86.999439 21.299863 228.998524-135.199129 278.398206-135.199129 278.398206z"  horiz-adv-x="1024" />

    
    <glyph glyph-name="next" unicode="&#58889;" d="M666.5 349L427.6 110.29999999999995c-19.6-19-50.8-18.5-69.7 1.1-18.5 19.1-18.6 49.5 0 68.6l203.7 204-203.7 203.6c-19 19.5-18.6 50.8 0.9 69.8 19.2 18.7 49.7 18.7 68.9 0l238.8-238.7c19.1-19.3 19.1-50.4 0-69.7zM896.1 896h-768C57.4 896 0 838.8 0 768.1V0c0-70.7 57.4-128 128.1-127.9h768c70.7 0 127.9 57.3 127.9 127.9V768C1024.1 838.6 966.9 895.9 896.3 895.9c-0.1 0-0.2 0-0.2 0.1z"  horiz-adv-x="1024" />

    
    <glyph glyph-name="arrow-down" unicode="&#58890;" d="M1001.8138 567.1l-438-479.6c-13.1-14.9-32-23.5-51.8-23.5-19.8 0-38.7 8.5-51.8 23.5l-438 479.6c-21.4 22.6-28 55.6-16.9 84.7C16.3138 680.9 43.0138 701.2 74.0138 704h875.7c31.1-2.6 57.9-22.9 69-52.1 11.1-29.2 4.5-62.1-16.9-84.8z"  horiz-adv-x="1024" />

    
    <glyph glyph-name="sign" unicode="&#58891;" d="M1024 452.3H675.8c-31.8 155.6-169.6 273-334.5 273C153.1 725.3 0 572.2 0 384s153.1-341.3 341.3-341.3c164.8 0 302.7 117.5 334.4 273.1H1024V452.3zM341.3 179.20000000000005c-112.9 0-204.8 91.9-204.8 204.8s91.9 204.8 204.8 204.8S546.1 496.9 546.1 384s-91.8-204.8-204.8-204.8z"  horiz-adv-x="1024" />

    
    <glyph glyph-name="arrow-up" unicode="&#58892;" d="M1001.8 200.89999999999998c21.4-22.7 28-55.6 16.8-84.8-11.1-29.2-37.8-49.4-69-52.1H74c-31 2.8-57.7 23.1-68.7 52.2-11.1 29.1-4.4 62.1 16.9 84.7l438 479.6c13.1 14.9 32 23.5 51.8 23.5 19.8 0 38.7-8.5 51.8-23.5l438-479.6z"  horiz-adv-x="1024" />

    
    <glyph glyph-name="last" unicode="&#58893;" d="M357.50013 348.9c-19.1 19.3-19.1 50.5 0 69.8l238.8 238.7c19.2 18.7 49.7 18.7 68.9 0 19.5-19 19.9-50.3 0.9-69.8L462.40013 383.9l203.7-204c18.5-19.1 18.5-49.5 0-68.6-19-19.6-50.2-20-69.7-1.1L357.50013 348.9zM127.90013 895.9h-0.2C57.10013 895.9-0.09987 838.6 0.00013 768v-768.1C0.00013-70.70000000000005 57.30013-128 127.90013-128h768c70.7 0 128.1 57.2 128.1 127.9V768.1C1024.00013 838.8 966.60013 896 895.90013 896l-768-0.1z"  horiz-adv-x="1024" />

    
    <glyph glyph-name="school" unicode="&#58894;" d="M512.19998 895.69799C289.52217 896.29793 108.240234 716.515845 107.040354 493.538065c0-214.078667 362.963831-594.040805 378.162316-610.139201 6.999303-7.299273 16.598346-11.398864 26.69734-11.398864h0.79992c10.398964 0.09999 20.197987 4.599542 26.99731 12.498755l125.687475 142.985751C832.368076 230.36428999999998 916.959646 387.348646 916.959646 493.938025 915.759766 716.8158149999999 734.57782 896.69789 511.80002 895.99796l0.39996-0.29997z m0-584.941711c-100.689966 0.9999-181.481916 83.49168-180.482015 184.281636 0.9999 100.789956 83.39169 181.681896 184.081656 180.681996 99.790056-0.9999 180.282035-82.19181 180.482016-182.081856-0.39996-101.489887-82.79175-183.281736-184.081657-182.881776z"  horiz-adv-x="1024" />

    
    <glyph glyph-name="place" unicode="&#58895;" d="M0-54.89999999999998v51.6h76.8V719.6c-0.2 56.8 45.6 103 102.4 103.3h358.4c56.8-0.2 102.6-46.5 102.4-103.3v-206.5h204.8c56.8-0.3 102.6-46.5 102.4-103.3v-413h76.8v-51.6H0z m588.8 774.5c0.2 28.3-22.5 51.4-50.8 51.6H179.2c-28.3 0-51.2-22.9-51.2-51.2V-3.2000000000000455h460.8V719.6zM896 409.8c0.2 28.3-22.5 51.4-50.8 51.6H640v-464.7h256V409.8z m-51.2-129.1H691.2v51.6h153.6v-51.6z m0-154.9H691.2v51.6h153.6v-51.6z m-512 413.1H179.2v51.6h153.6v-51.6z m0-154.9H179.2v51.6h153.6V384z m0-154.9H179.2v51.6h153.6v-51.6z m204.8 309.8H384v51.6h153.6v-51.6z m0-154.9H384v51.6h153.6V384z m0-154.9H384v51.6h153.6v-51.6z"  horiz-adv-x="1024" />

    
    <glyph glyph-name="people" unicode="&#58896;" d="M260.7 727.3c13.2 33.5 33.1 63.9 58.7 89.2 24.9 25 54.3 44.9 86.7 58.7C438.7 888.1 473.3 895 508.4 895.7c35.1-0.1 69.8-7 102.3-20.5 33.1-12.5 62.8-32.6 86.8-58.7 25.5-25.4 45.5-55.7 58.6-89.2a277.42 277.42 0 0 0 0-209.2c-13.1-33.5-33.1-63.9-58.6-89.3-24.9-24.9-54.4-44.9-86.8-58.7-32.6-12.9-67.2-19.9-102.3-20.5-35.1 0.1-69.8 7-102.3 20.5-33.1 12.6-62.8 32.7-86.7 58.7-25.6 25.4-45.6 55.8-58.7 89.3-13.1 33.3-20.1 68.8-20.5 104.6-0.1 35.9 6.9 71.4 20.5 104.6z m676.1-775.5c-11.1-26.5-32.2-47.5-58.6-58.7-30.8-15.3-65.1-22.4-99.5-20.5H242.8c-34.6-0.9-68.8 7-99.5 23-26.3 13.8-47 36.4-58.6 63.8-10.2 32.4-10.2 67.1 0 99.5 4 14 9.1 27.7 15.3 40.9 79.5 153.5 237.9 249.9 410.7 250 124.7 1.1 244.4-48.6 331.7-137.7 31-31.4 56.8-67.6 76.5-107.2 8.5-12.3 14.6-26.2 17.9-40.9 6.3-18.9 9.8-38.7 10.2-58.6-0.4-18.4-3.9-36.5-10.2-53.6zM260.7 727.3c13.2 33.5 33.1 63.9 58.7 89.2 24.9 25 54.3 44.9 86.7 58.7C438.7 888.1 473.3 895 508.4 895.7c35.1-0.1 69.8-7 102.3-20.5 33.1-12.5 62.8-32.6 86.8-58.7 25.5-25.4 45.5-55.7 58.6-89.2a277.42 277.42 0 0 0 0-209.2c-13.1-33.5-33.1-63.9-58.6-89.3-24.9-24.9-54.4-44.9-86.8-58.7-32.6-12.9-67.2-19.9-102.3-20.5-35.1 0.1-69.8 7-102.3 20.5-33.1 12.6-62.8 32.7-86.7 58.7-25.6 25.4-45.6 55.8-58.7 89.3-13.1 33.3-20.1 68.8-20.5 104.6-0.1 35.9 6.9 71.4 20.5 104.6z m676.1-775.5c-11.1-26.5-32.2-47.5-58.6-58.7-30.8-15.3-65.1-22.4-99.5-20.5H242.8c-34.6-0.9-68.8 7-99.5 23-26.3 13.8-47 36.4-58.6 63.8-10.2 32.4-10.2 67.1 0 99.5 4 14 9.1 27.7 15.3 40.9 79.5 153.5 237.9 249.9 410.7 250 124.7 1.1 244.4-48.6 331.7-137.7 31-31.4 56.8-67.6 76.5-107.2 8.5-12.3 14.6-26.2 17.9-40.9 6.3-18.9 9.8-38.7 10.2-58.6-0.4-18.4-3.9-36.5-10.2-53.6z"  horiz-adv-x="1024" />

    
    <glyph glyph-name="grade" unicode="&#58897;" d="M512 7.600000000000023l-419.6 308L0.3 248 512-128l512 376-92.7 68L512 7.600000000000023z m0 136.5l419 307.5 93 68.5L512 896 0 520l92.7-68L512 144.10000000000002z"  horiz-adv-x="1024" />

    
    <glyph glyph-name="subject" unicode="&#58898;" d="M304.9 814H0v-800.6h271.1c16.8 0 33.6-1.5 50.1-4.5 16.6-3.1 32.8-7.6 48.6-13.4L479.7-46V644.2c0 45.3-18.5 88.7-51.3 119.9-33.2 32.2-77.6 50.1-123.7 49.9h0.2z m414.2 0c-46.1 0.2-90.6-17.7-123.7-49.8-32.7-31.3-51.3-74.6-51.3-119.9V-46l103.7 39c17.8 6.7 36.2 11.8 54.9 15.4 18.8 3.4 37.8 5.1 56.8 5H1024V814H719.1z"  horiz-adv-x="1024" />

    
    <glyph glyph-name="course" unicode="&#58899;" d="M945.2019 864H672.3019c-1.7 0-3.4-0.8-4.4-2.2-63.9-85.1-184.5-103.4-270.8-40.5-15.6 11.4-29.5 25-41.1 40.5-1 1.4-2.7 2.2-4.4 2.2H78.8019C35.0019 863.6-0.2981 827.8 0.0019 784v-740c-0.3-43.8 35-79.6 78.8-80h287.3c1.5 0 2.8-0.6 3.9-1.6 78.6-77.8 205.3-77.9 284.1 0 1 1 2.4 1.6 3.9 1.6h287.3c43.8 0.4 79.1 36.2 78.8 80V784c0.2 43.8-35.1 79.6-78.9 80z m0-814.5c0-3-2.5-5.5-5.5-5.5h-301c-11.6 0-22.5-5.2-30-14-43.5-53.4-122.1-61.5-175.5-18-6.6 5.4-12.6 11.4-18 18-7.4 8.9-18.3 14-29.9 14h-301c-3 0-5.5 2.5-5.5 5.5v729c0 3 2.5 5.5 5.5 5.5h270.2c65.7-0.6 118.6-54.3 118.2-120v-340c-0.1-21.7 17.4-39.5 39.1-39.6 21.7-0.1 39.5 17.4 39.6 39.1V664c-0.4 65.7 52.4 119.4 118.1 120h270.2c3 0 5.5-2.5 5.5-5.5v-729z"  horiz-adv-x="1024" />

    
    <glyph glyph-name="live" unicode="&#58900;" d="M320 512c-70.7 0-128-57.3-128-128s57.3-128 128-128 128 57.3 128 128-57.3 128-128 128z m0-192c-35.3 0-64 28.7-64 64s28.7 64 64 64 64-28.7 64-64-28.7-64-64-64z m672 333.7c-4.7 0-9.4-1-13.6-3.1L832.1 582V704c0 35.3-28.7 64-64 64H64c-35.3 0-64-28.7-64-64v-640c0-35.3 28.7-64 64-64h704c35.3 0 64 28.7 64 64V186l146.3-68.6c4.3-2 8.9-3 13.6-3.1 17.7 0 32 14.3 32.1 31.9V621.6c0 17.7-14.3 32.1-32 32.1zM758 73.10000000000002H74V694.9h684v-621.8z m201.9 123.6l-128 60V511.3l128 60v-374.6z"  horiz-adv-x="1024" />

    
    <glyph glyph-name="map-back" unicode="&#58901;" d="M957.11613 317.1h-555c-37 0-67.1 30-67.1 67.1s30 67.1 67.1 67.1h554.8c37 0 67.1-30 67.1-67.1s-30-67.1-67.1-67.1h0.2zM308.61613 11.600000000000023c-21 0-40.9 9.8-53.6 26.5L13.61613 356.29999999999995c-19.2 25.4-18 60.7 3 84.7l256.3 292.6c24.4 27.9 66.8 30.7 94.7 6.3 27.9-24.4 30.7-66.8 6.3-94.7L153.71613 393.7 362.11613 119c22.4-29.5 16.6-71.5-12.8-93.9l-0.1-0.1c-11.7-8.7-26-13.5-40.6-13.4z"  horiz-adv-x="1024" />

    
    <glyph glyph-name="home" unicode="&#58902;" d="M838.009685-127.99909000000002H703.109805c-41.199963-0.2-74.699934 32.799971-75.099933 73.799934V186.30063099999995c0.1 15.499986-12.399989 28.199975-27.999975 28.299975H419.710057c-15.599986-0.2-28.099975-12.799989-27.999975-28.299975v-240.499787c0.1-40.599964-32.699971-73.599935-73.299935-73.799934H185.510265c-40.599964 0.3-73.399935 33.29997-73.299935 73.799934V394.000446H30.310403c-12.099989 0-22.99998 7.199994-27.799975 18.299984-4.799996 11.09999-2.599998 23.999979 5.599995 32.999971L489.609995 886.700008c11.999989 12.199989 31.799972 12.399989 43.999961 0.4l0.399999-0.4 477.999576-437.799611c13.499988-10.399991 15.899986-29.799974 5.399995-43.199961-0.799999-0.999999-1.699998-1.999998-2.599998-2.899998-5.799995-5.699995-13.599988-8.899992-21.79998-8.699992h-81.899928v-448.199602c0.1-40.499964-32.599971-73.399935-73.099935-73.899934zM419.710057 278.80054800000005H600.009897c49.299956-0.2 99.999911-43.199962 99.799911-92.399917v-229.599796c0.799999-7.399993 7.099994-12.899989 14.499987-12.699989h112.8999c7.199994-0.1 13.099988 5.599995 13.299988 12.699989l1.999998 476.799576c0 8.099993 3.199997 15.799986 8.899992 21.599981 5.699995 5.699995 13.399988 8.899992 21.399981 8.899992h34.49997l-394.799649 347.999691-394.79965-347.999691h34.49997c16.799985-0.1 30.399973-13.699988 30.299973-30.499973v-0.1l1.999998-476.699576c0-6.999994 5.699995-12.699989 12.699989-12.699989H308.010156c6.999994 0.1 12.599989 5.799995 12.599989 12.699989V186.30063099999995c-0.2 49.099956 50.499955 92.199918 99.799911 92.399918h-0.699999z"  horiz-adv-x="1024" />

    
    <glyph glyph-name="census" unicode="&#58903;" d="M512.09908-127.99848999999995C229.399621-128.09849000000008 0.10006 101.00107200000002 0.00006 383.80053-0.09994 590.500135 124.099822 776.999778 314.799457 856.499626c18.399965 8.199984 39.999923-0.2 48.199908-18.599965s-0.2-42.999918-18.599964-51.199902c-0.499999-0.2-0.999998-0.399999-1.599997-0.699998-223.699572-93.399821-326.299375-344.399341-232.999554-568.198913 93.399821-223.699572 344.399341-329.39937 568.098912-235.999548 106.599796 44.499915 191.399634 126.299758 235.899549 232.899554 7.899985 18.499965 32.199938 27.199948 50.799903 19.699962 18.399965-7.199986 27.599947-27.999946 20.399961-46.399911-0.2-0.499999-0.399999-0.899998-0.599999-1.399997-79.199848-190.799635-265.699491-315.099397-472.299096-314.599398z m474.999091 475.39909h-474.999091c-20.199961-0.1-36.69993 16.199969-36.89993 36.49993V859.49962C475.29915 879.699581 491.799119 896.09955 511.99908 895.99955h0.1c282.499459-0.499999 511.499021-229.399561 511.89902-511.99902 0-20.199961-16.499968-36.59993-36.69993-36.59993h-0.199999M554.698998 426.00045h394.599245C930.998278 639.300041 767.89859 802.399729 554.698998 820.799694V426.00045z"  horiz-adv-x="1024" />

    
    <glyph glyph-name="play-time" unicode="&#58904;" d="M512 896C229.2 896 0 666.8 0 384s229.2-512 512-512 512 229.2 512 512C1024.5 666.3 796 895.5 513.7 896H512z m0-926.3c-229 0-414.7 185.8-414.6 414.8S283.1 799.2 512.2 799.1c229 0 414.7-185.8 414.6-414.8v-0.3c0-228.8-185.4-414.3-414.2-414.3h-0.6zM734.1 207.39999999999998c-4.9 0.2-9.8 0.8-14.6 1.9L487.8 291c-17.2 5.8-28.8 22-28.7 40.1V583.4c-1.1 23.9 17.4 44.2 41.3 45.4 23.9 1.1 44.2-17.4 45.4-41.3 0.1-1.4 0.1-2.7 0-4v-221.7l202.4-70.3c22.9-7.7 35.1-32.5 27.4-55.3-6.1-18-23-30-42-29.7l0.5 0.9z"  horiz-adv-x="1024" />

    
    <glyph glyph-name="play-number" unicode="&#58905;" d="M512 896C229.2 896 0 666.8 0 384s229.2-512 512-512 512 229.2 512 512C1024.5 666.3 796 895.5 513.7 896H512z m0-926.3c-229 0-414.7 185.8-414.6 414.8S283.1 799.2 512.2 799.1c229 0 414.7-185.8 414.6-414.8v-0.3c0-228.8-185.4-414.3-414.2-414.3h-0.6z m195.7 449.7L443.5 572.2c-19.9 11.1-45.1 4-56.3-15.9-3.3-6-5.1-12.7-5.2-19.5v-306.4c0.4-22.9 19.3-41.1 42.2-40.6 6.8 0.1 13.4 1.9 19.3 5.2l264.2 152.8c19.8 12.1 26.1 37.9 14 57.7-3.5 5.7-8.3 10.5-14 13.9z"  horiz-adv-x="1024" />

    
    <glyph glyph-name="not-start" unicode="&#58906;" d="M512.1 896C229.3 896 0 666.8 0 384.1s229.2-512 511.9-512.1c282.8 0 512 229.2 512.1 511.9v0.1C1024 666.7 794.9 896 512.1 896z m244.8-605.5c0-9.8-8-17.8-17.8-17.8H418.6c-1.2 0-2.4 0.1-3.6 0.3-8.3 1.7-14.2 9-14.2 17.4V611.2c0 9.8 8 17.8 17.8 17.8h98c9.8 0 17.8-8 17.8-17.8v-204.8h204.9c9.8 0 17.8-8 17.8-17.8v-98l-0.2-0.1z"  horiz-adv-x="1024" />

    
    <glyph glyph-name="end" unicode="&#58907;" d="M512.3 895.99987C229.500072 896.19987 0.20013 667.099928 0.00013 384.3c-0.2-282.799928 228.999942-512.09987 511.69987-512.29987 282.799928-0.2 512.09987 228.899942 512.29987 511.69987v0.3C1023.89987 666.599928 794.899928 895.79987 512.3 895.99987z m170.399957-648.499835c0-18.799995-15.299996-34.099991-34.099992-34.099992H376.000035c-18.799995-0.3-34.299991 14.699996-34.599992 33.499992V520.2999649999999c0 18.799995 15.299996 34.099991 34.099992 34.099992H648.699965c18.799995 0 34.099991-15.299996 34.099992-34.099992v-272.79993z"  horiz-adv-x="1024" />

    
    <glyph glyph-name="invalid-course" unicode="&#58908;" d="M511 164.79999999999995c-55.7 0-100.7-35.1-100.7-78.5s45.1-78.5 100.7-78.5 100.7 35.1 100.7 78.5-45 78.5-100.7 78.5zM509.9 690.7c-66.4 0-99.6-38.1-99.6-103.4s42.6-349.7 44-350.8c67.6-62.2 115.8 0 115.8 0s44.1 276.9 44.1 350.8-34.8 103.4-104.3 103.4zM512 896C229.2 896 0 666.8 0 384s229.2-512 512-512 512 229.2 512 512S794.8 896 512 896z m0-963.8C262.5-67.79999999999995 60.2 134.5 60.2 384S262.5 835.8 512 835.8 963.8 633.5 963.8 384 761.5-67.79999999999995 512-67.79999999999995z"  horiz-adv-x="1024" />

    
    <glyph glyph-name="ing" unicode="&#58909;" d="M512.199995 895.99997C229.500014 896.09997 0.10003 666.999986 0.00003 384.200005c-0.1-282.799981 228.999984-512.099965 511.799965-512.199965 282.799981-0.1 512.099965 228.999984 512.199965 511.799965v0.2C1024.19996 666.599986 795.199976 895.79997 512.599995 895.99997h-0.4zM198.700016 526.499995h114.199993v-398.999972H198.700016v398.999972z m170.999989 227.999985h114.199992v-626.999957H369.700005v626.999957z m170.899988-113.999993h114.199992v-512.999964H540.599993v512.999964z m170.999988-227.999984h114.199993v-284.99998H711.599981v284.99998z"  horiz-adv-x="1024" />

    
    <glyph glyph-name="edit" unicode="&#58910;" d="M904.212258 52.782344999999964c0.09999-33.096768-26.697393-60.094131-59.894151-60.194121H179.583023c-33.196758 0.09999-59.994141 27.097354-59.894151 60.194121V715.317645c-0.09999 33.096768 26.697393 60.094131 59.894151 60.194121H599.941972c15.798457 0 28.597207 12.79875 28.597207 28.597208V867.402793C628.539179 883.20125 615.740429 896 599.941972 896H119.788862C53.395346 895.80002-0.19942 841.905283 0.00056 775.511766v-783.023532c-0.19998-66.293526 53.394786-120.188263 119.788302-120.488234h784.423396c66.293526 0.19998 119.888292 54.094717 119.688312 120.388243V199.86798199999998c0 18.598184-15.098526 33.596719-33.596719 33.596719H937.908967c-18.598184 0-33.596719-15.098526-33.596719-33.596719l-0.09999-147.085637zM400.561443 269.56117600000005h207.479738l415.159457 417.659213L815.82089 896 400.561443 478.340787v-208.779611z"  horiz-adv-x="1024" />

    
    <glyph glyph-name="add-course" unicode="&#58911;" d="M614.4 486.4H1024v-204.8H614.4V-128H409.6V281.6H0V486.4h409.6V896h204.8v-409.6z"  horiz-adv-x="1024" />

    
    <glyph glyph-name="date" unicode="&#58912;" d="M1011.6 804.9c-7.9 6.9-18.1 10.7-28.6 10.5H767.6V887c-0.4 5.3-4.9 9.3-10.2 8.9h-71c-5.3 0.4-9.9-3.6-10.2-8.9V815.3H347.9V887c-0.4 5.3-4.9 9.3-10.2 8.9h-71c-5.3 0.4-9.9-3.6-10.2-8.9V815.3H41c-10.5 0.2-20.7-3.5-28.6-10.5C4.7 798.8 0.1 789.5 0 779.6v-871.7c0.1-9.9 4.7-19.2 12.4-25.3 7.9-6.9 18.1-10.6 28.6-10.5h942c10.5-0.2 20.7 3.6 28.6 10.5 7.7 6.2 12.3 15.5 12.4 25.3V779.6c-0.2 9.9-4.7 19.2-12.4 25.3z m-79.9-852.2H92.3v782h164.1V681c0.3-5.3 4.8-9.3 10.1-9h71.1c5.3-0.4 9.9 3.6 10.2 8.9V734.7h328.1V681c0.3-5.3 4.8-9.3 10.1-9h71.1c5.3-0.4 9.9 3.6 10.2 8.9V734.7h164.1v-782zM191.9 546h125.3v-109.4H191.9zM449.7 546h124.5v-109.4H449.7zM706.8 546h125.3v-109.4H706.8zM191.9 369.29999999999995h125.3v-109.4H191.9zM449.7 304.29999999999995v-44.4h124.5V369.29999999999995H449.7zM706.8 315.79999999999995v-55.9h125.3V369.29999999999995H706.8zM191.9 192.39999999999998h125.3v-109.3H191.9zM449.7 192.39999999999998h124.5v-109.3H449.7zM706.8 192.39999999999998h125.3v-109.3H706.8z"  horiz-adv-x="1024" />

    
    <glyph glyph-name="quote" unicode="&#58913;" d="M818.5 8.399999999999977H136.4V690.5h136.4V827H0v-955h955V281.29999999999995H818.5zM185 268.5c-2.1-14.8 6.4-29 20.4-34.1h6.9c10.7 0.2 20.7 5.2 27.2 13.6 33.4 31 70 58.5 109.1 81.9 6.9 6.8 13.7 6.8 20.5 13.6 35.4 22.8 74.7 39 115.9 47.7 15.4 4.8 31.6 7.1 47.7 6.8h20.5c19.9 6.1 40.7 8.4 61.4 6.9v-191.1L1024 555 614.7 896v-191c-50.7-4.6-101-13.7-150.1-27.3-52.4-17.1-99.5-47.7-136.4-88.6-35.8-41.1-65.6-87.1-88.7-136.4-25-59.2-43.3-121-54.5-184.2z"  horiz-adv-x="1024" />

    
    <glyph glyph-name="add-pic" unicode="&#58914;" d="M512 896C228.9 896 0 667.1 0 384s228.9-512 512-512 512 228.9 512 512S795.1 896 512 896z m171.7-578.3H578.3v-105.4c-3-30.1-30.1-54.2-60.2-54.2-27.1 3-51.2 24.1-54.2 54.2V317.70000000000005H340.3c-30.1 0-57.2 27.1-54.2 57.2 0 30.1 24.1 54.2 54.2 54.2h123.5V552.7c0 30.1 27.1 57.2 57.2 57.2s57.2-24.1 57.2-57.2v-123.5h105.4c30.1 0 57.2-27.1 54.2-57.2 0.1-30.2-24-54.3-54.1-54.3z"  horiz-adv-x="1024" />

    
    <glyph glyph-name="account-setting" unicode="&#58915;" d="M853.3 896H170.7C76.6 896 0 819.4 0 725.3v-682.7C0-51.5 76.6-128 170.7-128h682.7c94.1 0 170.7 76.5 170.7 170.7V725.3C1024 819.4 947.5 896 853.3 896z m-57.1-955.7H227.9c16.3 142.9 136.2 254.5 283.5 254.8 147.8 0.3 268.4-111.4 284.8-254.8z m-446 491.3c3.7 89.4 79.1 158.9 168.5 155.2 89.4-3.7 158.9-79.1 155.2-168.5-3.5-86.7-75-155.3-161.9-155.3-91.2 2.1-163.5 77.5-161.8 168.6z m605.5-388.9c0-56.5-45.9-102.4-102.4-102.4h-2.8C837 74.79999999999995 747.7 191.10000000000002 618.2 236.10000000000002c68.4 41.3 109.9 115.6 109.2 195.5 4.8 119.2-88 219.6-207.2 224.4-119.2 4.7-219.6-88-224.4-207.2-0.2-5.7-0.2-11.5 0-17.2-0.7-79.9 40.9-154.2 109.2-195.5C275.4 191 186.1 74.70000000000005 172.6-59.799999999999955h-2.1c-56.5 0-102.4 45.9-102.4 102.4V725.3c0 56.5 45.9 102.4 102.4 102.4h682.7c56.5 0 102.4-45.9 102.4-102.4v-682.6z"  horiz-adv-x="1024" />

    
    <glyph glyph-name="mailbox" unicode="&#58916;" d="M102.5 896h819c59.5-3.4 105.2-54.2 102.4-113.8L513 460.4 1.2 782C-1.8 841.3 43.3 892 102.5 896zM1.2 658.8l-1-671.6C-3-72.70000000000005 42.6-124 102.5-128h819c59.9 4 105.5 55.3 102.4 115.2V659.1L524.3 351.70000000000005c-7.5-4.8-17.1-4.8-24.6 0L1.2 658.4v0.4z"  horiz-adv-x="1024" />

    
    <glyph glyph-name="set-home" unicode="&#58917;" d="M877.688018-128H146.298003C65.499106-128 0-62.50089400000002 0 18.298002999999994V603.390015c0 80.798897 65.499106 146.298003 146.298003 146.298003H255.996505V822.887018h98.498655C427.894158 909.88583 557.992382 920.785682 644.991194 847.286685c8.79988-7.499898 16.999768-15.599787 24.499666-24.499665H767.989515v-73.099002h109.698503c80.798897 0 146.298003-65.499106 146.298002-146.298003v-585.092012c0-80.798897-65.499106-146.298003-146.298002-146.298003zM694.890513 749.688018h-81.29889C594.79188 805.787252 534.092708 836.086838 477.993474 817.287095c-31.899564-10.699854-56.899223-35.699513-67.599077-67.599077h-81.29889v-146.298003h365.695007V749.688018z m255.996505-146.298003c0 40.399448-32.699554 73.099002-73.099002 73.099002H767.989515v-146.298003H255.996505V676.589015H146.298003c-40.399448 0-73.099002-32.699554-73.099002-73.099002v-585.092012c0-40.399448 32.699554-73.099002 73.099002-73.099002h731.390015c40.399448 0 73.099002 32.699554 73.099002 73.099002v584.992014zM767.989515 127.99650499999996H255.996505c-20.199724 0-36.5995 16.399776-36.5995 36.5995s16.399776 36.5995 36.5995 36.599501h511.99301c20.199724 0 36.5995-16.399776 36.5995-36.599501S788.189239 127.99650499999996 767.989515 127.99650499999996z m0 182.897503H255.996505c-20.199724 0-36.5995 16.399776-36.5995 36.5995S235.796781 383.99301 255.996505 383.99301h511.99301c20.199724 0 36.5995-16.399776 36.5995-36.5995s-16.399776-36.499502-36.5995-36.499502z"  horiz-adv-x="1024" />

    
    <glyph glyph-name="teach-census" unicode="&#58918;" d="M118.449556 237.68692199999998c-25.199099 0-45.698366-20.499267-45.698366-45.698365v-274.290191c0-25.199099 20.499267-45.698366 45.698366-45.698366s45.698366 20.499267 45.698366 45.698366V191.98855700000001c0 25.199099-20.39927 45.698366-45.59837 45.698365h-0.099996z m262.190624 292.589537c-25.199099 0-45.698366-20.499267-45.698366-45.698366v-566.779731c0-25.199099 20.499267-45.698366 45.698366-45.698366 25.199099 0 45.698366 20.499267 45.698365 45.698366V484.478097c0 25.299095-20.499267 45.798362-45.698365 45.798362-0.099996 0-0.099996 0 0 0z m524.28125 0c-25.199099 0-45.698366-20.39927-45.698365-45.598369v-566.879728c0-25.199099 20.499267-45.698366 45.698365-45.698366s45.698366 20.499267 45.698366 45.698366V484.478097c0 25.299095-20.499267 45.798362-45.698366 45.798362zM642.730807 310.784308c-25.199099 0-45.698366-20.499267-45.698366-45.698365v-347.387577c0-25.199099 20.499267-45.698366 45.698366-45.698366s45.698366 20.499267 45.698366 45.698366V265.08594300000004c0 25.299095-20.39927 45.698366-45.698366 45.698365zM978.418802 895.963381h-164.9941c-25.299095 0.999964-46.598334-18.599335-47.598297-43.89843-0.999964-25.299095 18.599335-46.598334 43.89843-47.598298h57.997926L647.830624 587.174424 425.038592 810.066453c-17.099388 16.999392-44.498409 17.699367-62.297772 1.499946l-1.799936-1.799935L12.953329 461.978901c-17.599371-17.999356-17.199385-46.898323 0.799971-64.397697 17.699367-17.199385 45.898359-17.199385 63.597726 0L393.039736 713.169918l219.392154-219.392154c0.799971-0.899968 1.599943-1.799936 2.499911-2.699903 6.499768-6.599764 14.799471-10.999607 23.799149-12.699546h1.899932c13.799507-2.099925 27.899002 2.299918 37.998641 11.999571l0.699975 0.699975L932.62044 740.968924v-54.998033c0-25.199099 20.499267-45.698366 45.698366-45.698366s45.698366 20.499267 45.698365 45.698366V850.465008c-0.199993 25.099102-20.499267 45.398376-45.598369 45.498373z"  horiz-adv-x="1024" />

    
    <glyph glyph-name="handset" unicode="&#58919;" d="M755.8 896H267.4C212.6 894.9 169 849.7 170 794.9v-820.5c-1.6-55 41.8-100.8 96.8-102.4h489c55.3 1.4 99.2 47.1 98.2 102.4V793.6C855 848.9 811.1 894.7 755.8 896zM446.7 857.6h129.8c11.4-0.5 20.2-10.2 19.7-21.6 0-0.3 0-0.6-0.1-1-0.4-10.8-8.9-19.5-19.6-20.1H446.7c-11.4 0.6-20.3 10.3-19.7 21.7 0 0.3 0 0.5 0.1 0.8 0 10.9 8.7 19.8 19.6 20.2z m64.9-904.5c-33-0.5-60.2 25.9-60.6 58.9-0.5 33 25.9 60.1 58.9 60.6 32.3-0.5 58.5-26.6 58.9-58.9v-0.9c0.5-32.3-25-58.9-57.2-59.7z m244.2 168.5H267.4V765.9h488.4v-644.3z"  horiz-adv-x="1024" />

    
    <glyph glyph-name="manage-apply" unicode="&#58920;" d="M887.40049-128h-751C60.90049-127.79999999999995-0.19951-66.5 0.00049 9.100000000000023V758.9C-0.09951 834.5 61.00049 895.8 136.50049 896h751c75.5-0.2 136.6-61.5 136.5-137.1v-749.7c0.2-75.6-60.9-137-136.6-137.2 0.1 0 0.1 0 0 0z m68.3 886.9c0.1 37.8-30.5 68.5-68.2 68.6h-751c-37.8-0.1-68.3-30.8-68.2-68.6v-68.6h887.4v68.6z m0-137.2H68.20049v-612.6c-0.1-37.8 30.5-68.5 68.2-68.5h751c37.8 0.1 68.3 30.8 68.2 68.5V621.7zM785.00049 4.5c-56.8-0.3-103.1 45.6-103.4 102.4-0.3 56.8 45.6 103.1 102.4 103.4 56.8 0.3 103.1-45.6 103.4-102.4v-0.6c0.2-56.6-45.5-102.6-102-102.8-0.1 0.1-0.2 0.1-0.4 0z m34.2 137.2h-68.3v-68.5h68.3v68.5zM785.00049 352c-56.8-0.3-103.1 45.6-103.4 102.4-0.3 56.8 45.6 103.1 102.4 103.4 56.8 0.3 103.1-45.6 103.4-102.4v-0.5c0.2-56.6-45.4-102.6-102-102.8-0.1-0.1-0.2-0.1-0.4-0.1z m34.2 137.1h-68.3v-68.5h68.3v68.5zM512.00049 4.5c-56.8-0.3-103.1 45.6-103.4 102.4-0.3 56.8 45.6 103.1 102.4 103.4 56.8 0.3 103.1-45.6 103.4-102.4v-0.6c0.2-56.6-45.5-102.6-102-102.8-0.2 0.1-0.3 0.1-0.4 0z m34.1 137.2h-68.2v-68.5h68.2v68.5zM512.00049 352c-56.8-0.3-103.1 45.6-103.4 102.4-0.3 56.8 45.6 103.1 102.4 103.4 56.8 0.3 103.1-45.6 103.4-102.4v-0.5c0.3-56.6-45.3-102.6-101.9-102.9h-0.5z m34.1 137.2h-68.2v-68.6h68.2v68.6zM238.90049 4.600000000000023c-56.9-0.3-103.2 45.6-103.4 102.4-0.3 56.8 45.6 103.1 102.4 103.4 56.8 0.3 103.1-45.6 103.4-102.4v-0.6c0.2-56.6-45.4-102.6-102-102.8h-0.4zM273.00049 141.70000000000005h-68.2v-68.5H273.00049v68.5zM238.90049 352c-56.8-0.3-103.1 45.6-103.4 102.4-0.3 56.8 45.6 103.1 102.4 103.4 56.8 0.3 103.1-45.6 103.4-102.4v-0.5c0.3-56.6-45.3-102.6-101.9-102.9h-0.5zM273.00049 489.2h-68.2v-68.6H273.00049v68.6z"  horiz-adv-x="1024" />

    
    <glyph glyph-name="manage-user" unicode="&#58921;" d="M664.79486 159.190338c-0.799973-17.999394 13.099559-33.198883 30.998957-33.998856h263.291142v-0.29999c18.099391-0.099997 32.798897 14.499512 32.798896 32.598903 0.099997 18.099391-14.499512 32.798897-32.598903 32.798897H695.893813c-16.799435-0.799973-30.298981-14.299519-31.098953-31.098954zM959.184956 64.29353100000003H570.498032c-16.799435-0.799973-30.298981-14.199522-30.998957-30.998957-0.799973-17.999394 13.099559-33.198883 30.998957-33.998857h388.686924v-0.299989c18.099391 0 32.6989 14.599509 32.698899 32.698899s-14.699505 32.598903-32.698899 32.598904zM959.184956-60.302278H570.498032c-17.999394 0-32.498907-14.599509-32.498907-32.498906s14.599509-32.498907 32.498907-32.498907h388.686924v-0.29999c17.999394 0 32.6989 14.599509 32.698899 32.6989 0 17.899398-14.699505 32.598903-32.698899 32.598903zM805.990109 567.876589v4.299855C803.390197 753.670338 654.195216 898.565464 472.901315 895.965551 291.507418 893.365639 146.512296 744.170658 149.112208 562.77676c1.799939-124.595808 72.797551-232.092192 175.894083-286.190371-220.492582-88.797013-291.190204-360.787862-291.990177-363.987755-4.499849-17.299418 5.899802-34.998823 23.099223-39.498671 2.599913-0.699976 5.199825-1.099963 7.899734-0.999966 14.799502 0.099997 27.699068 10.299653 31.098954 24.699169 3.599879 13.999529 90.096969 335.488713 369.78756 342.688471 5.799805-0.199993 11.59961-0.29999 17.399414-0.199994 180.093941 1.399953 324.989067 148.495004 323.68911 328.588946zM484.800915 304.18546000000003c-0.59998 0-1.19996 0.099997-1.699943 0.099997H469.80142c-143.095186 4.799839-256.591368 123.195855-254.691432 266.991018 1.999933 145.595102 121.595909 261.991186 267.091015 259.991253 144.495139-1.099963 260.891223-118.896 259.991253-263.391139v-3.699876c-1.799939-142.395209-116.196091-256.791361-257.391341-259.991253z"  horiz-adv-x="1024" />

    
    <glyph glyph-name="user" unicode="&#58922;" d="M334.3 450.1c24.3-24.1 53-43.3 84.6-56.6a256.11 256.11 0 0 1 198.2 0c31.6 13.3 60.3 32.5 84.6 56.6 23.9 24.5 43.1 53.2 56.4 84.6 25.6 64.2 25.6 135.8 0 200-13.3 31.6-32.4 60.5-56.4 85.1-24.3 24.1-53 43.3-84.6 56.6-63.5 26.1-134.7 26.1-198.2 0-31.6-13.3-60.3-32.5-84.6-56.6-24-24.6-43.1-53.5-56.4-85.1-25.6-64.2-25.6-135.8 0-200 13.3-31.5 32.5-60.1 56.4-84.6z m391.3-136.2H310.4c-122.5-7.6-215.5-112.6-207.9-234.7 6.9-111.5 96.1-200.3 207.9-207.2h415.2c121.9 14.1 209 125.1 194.9 246.5-11.9 102-92.6 182.5-194.9 195.4z"  horiz-adv-x="1024" />

    
    <glyph glyph-name="set-automatic-upgrade" unicode="&#58923;" d="M928.18984 318.5c27.6 32.1 50.9 59.3 68.9 80.2 36.3 47.3 36.1 113-0.5 160-5.7 6.2-17.9 20.9-34.4 40.2-49.5 58.2-132.4 155.7-170.6 197.1-17.4 23.5-44.4 38.1-73.6 39.9-2.7 0-11.3 0.4-117.7 0.4-121.1 0-292.1-0.4-292.1-0.4-30.3-0.4-58.6-15.2-76.1-40-22.4-26.3-57-66.6-92.1-107.5-44.7-51.9-90-104.6-111.4-130.2C-8.61016 512.7-9.61016 447.7 26.18984 401l2.4-3.2c62.8-73.6 408.7-425.7 408.7-425.7 17-25 45.1-40.2 75.3-40.7 30.2 0.4 58.3 15.6 75.2 40.7l340.4 346.4zM576.88984 485s4.8-174.8 0-174.8H451.58984c-4.8 0 0 174.8 0 174.8H306.78984l-2.5 2.5c-4.1 4.1-4.2 10.7-0.1 14.9l0.1 0.1 204.1 204c4.1 4.1 10.8 4.1 15 0l204.1-204c4.1-4.2 4.1-10.8 0-15l-2.5-2.5H576.88984zM451.58984 259.6h125.4V210H451.58984v49.6z"  horiz-adv-x="1024" />

    
    <glyph glyph-name="close" unicode="&#58924;" d="M896.7 634.5L646.6 384.1l250.2-250.2 127.3-127L888.7-128 762.2-0.8999999999999773 512 249.29999999999995 261.8-0.8999999999999773 134.6-128 0 6.7999999999999545l127.3 127L377.4 384 127.3 634.2 0 761.2 134.6 896l127.3-127.1L512 518.7l250.2 250.2L888.7 896 1024 761.2l-127.3-127v0.3z"  horiz-adv-x="1024" />

    
    <glyph glyph-name="export" unicode="&#58925;" d="M839.697577 584.8932050000001l-291.797219 295.997179c-18.89982 19.599813-49.999523 20.199807-69.599337 1.399987-1.599985-1.499986-2.999971-3.09997-4.399958-4.799955L193.10374 592.9931280000001c-13.799868-9.599909-21.99979-25.399758-21.899792-42.199598-0.099999-27.899734 22.499786-50.699517 50.499519-50.799516h156.498508v-295.597182c-0.399996-47.19955 37.599642-85.799182 84.799192-86.299178h97.999066c47.299549 0.399996 85.199188 38.999628 84.799192 86.199179V499.994014h156.498508c28.29973 0.699993 50.599518 24.199769 49.799525 52.4995-0.299997 11.899887-4.699955 23.299778-12.49988 32.199693v0.199998z m131.598745-317.396975c-28.899725-0.299997-52.099503-23.899772-51.899505-52.799496v-236.997741H103.90459V214.99673099999995c0 28.699726-23.199779 51.899505-51.899506 51.899505S0.00558 243.696457 0.00558 214.99673099999995v-330.896846c-0.199998-6.499938 4.999952-11.999886 11.599889-12.099885h1000.090468c6.799935 0 12.299883 5.399949 12.399882 12.099885V214.99673099999995c-0.099999 29.099723-23.699774 52.599499-52.799497 52.499499z"  horiz-adv-x="1024" />

    
    <glyph glyph-name="watch-curse" unicode="&#58926;" d="M931.051684 895.973431H92.895179C42.897774 897.173369 1.299933 857.575424 0 807.478024v-846.156089c0.899953-50.197395 42.297805-90.195319 92.4952-89.295366h838.556484c50.0974-1.199938 91.695242 38.398007 92.895179 88.595402V806.878055c-0.099995 24.198744-10.199471 47.297546-27.798558 63.896684C978.649213 887.473872 955.250428 896.473405 931.051684 895.973431z m0-934.751491H92.895179V806.6780650000001h838.156505v-845.456125zM704.363447 384L383.980074 639.8867210000001v-511.673447L704.363447 384z"  horiz-adv-x="1024" />

    
    <glyph glyph-name="cover" unicode="&#58927;" d="M984.471689 274.07590700000003c0 116.892996-1.99988 233.885985 0 350.678987 0 24.398538-1.299922 48.997064 0 73.395602 7.199569 43.497394-1.199928 88.194715-23.69858 126.192438C935.874601 864.740513 892.977171 890.638961 845.580011 894.038758c-60.296387 2.799832-121.692708 0-181.889101 0-117.092984-0.899946-234.285961 2.399856-351.378944-0.399977-23.69858-0.599964-46.697202 1.599904-70.195794 2.299863-14.599125 0.299982-29.19825-0.49997-43.697382-2.399857-28.69828 0.099994-57.096579-6.899587-82.495056-20.198789-28.998262-17.998921-51.89689-43.89737-65.896052-74.795518-3.099814-7.299563-5.399676-14.899107-6.99958-22.598646-3.099814-28.19831-4.399736-56.496615-3.699779-84.794919-1.899886-28.098316 0.899946-55.796657 1.199928-83.894973 0-34.497933-2.099874-68.995866-1.399916-103.593792 1.299922-73.695584 0.599964-147.291174 0.899946-220.886764 0-63.396201 0.599964-127.192378 0-190.58858-6.899587-43.297406-1.399916-87.594751 15.799054-127.892336 16.499011-29.998202 40.097597-55.496675 68.895871-74.295549 20.69876-11.399317 43.997364-17.598945 67.695944-17.998921h657.960574c72.495656 4.299742 130.492181 61.596309 135.291893 133.591995 0.599964 89.494637 0 179.089269 0 268.6839l-1.199928-0.199988zM827.181114 497.662509c0-39.097657-31.898089-70.695764-71.195734-70.695764H268.814572c-39.297645 0-71.195734 31.698101-71.195734 70.695764V508.961832c0 39.097657 31.898089 70.695764 71.195734 70.695764H755.98538c39.297645 0 71.195734-31.698101 71.195734-70.695764v-11.299323z"  horiz-adv-x="1024" />

    
    <glyph glyph-name="portal-display" unicode="&#58928;" d="M1012.762526 462.678144L529.780397 887.962407c-12.299545 10.7996-30.398875 10.699604-42.598424-0.199992L10.899597 459.078277c-9.99963-8.999667-13.4995-23.399134-8.799675-36.098664 4.799822-12.799526 16.899375-21.199216 30.298879-21.09922h66.997521v-411.384778c-3.599867-30.898857 4.999815-62.097702 23.699123-86.596795 19.399282-21.599201 47.29825-33.198772 75.997188-31.698827h607.677515v-0.099997c28.398949-0.299989 55.997928 9.99963 77.497132 28.998927 23.299138 23.099145 35.598683 55.39795 33.79875 88.496726V403.180345l74.59724 2.199919c13.299508 0.399985 24.899079 8.999667 29.498908 21.699197 4.399837 12.69953 0.699974 26.899005-9.399652 35.598683z m-584.978355-226.191631c0 0.199993 0.099996 0.399985 0.099996 0.499982 0.899967 2.599904 2.399911 4.899819 4.399838 6.799748 5.599793 5.799785 24.399097 19.19929 77.097147 19.19929 25.39906 2.6999 50.898117-3.199882 72.69731-16.799379 3.999852-2.799896 6.899745-6.999741 8.0997-11.899559v-222.491768H427.784171V236.48651299999995z"  horiz-adv-x="1024" />

    
    <glyph glyph-name="cancel-full-screen" unicode="&#58929;" d="M695.6 282.6h234.1l-108-108.1L1024-28.200000000000045l-99.4-99.7-202.3 202.8-107.6-108.2V201.5c-0.2 44.6 35.8 80.9 80.5 81.1h0.4zM924.6 896l99.4-99.2-202.3-202 108.1-107.7H695.6c-44.6-0.1-80.8 35.8-80.9 80.3V801.9l107.6-107.7L924.6 896zM99.4 896l202.3-201.9L409.3 801.8v-233.9c-0.1-44.6-36.3-80.7-80.9-80.8H94.3l108.1 107.7L0 796.8 99.4 896z m202.3-821.2L99.4-128 0-28.299999999999955l202.3 202.7-108 108.1h234.1c44.8-0.1 81-36.4 80.9-81.1v-234.8L301.7 74.79999999999995z"  horiz-adv-x="1024" />

    
    <glyph glyph-name="photograph" unicode="&#58930;" d="M691.14149 354.70000000000005c-4 100.6-88.6 179-189.1 175.1-100.5-4-178.7-88.8-174.8-189.4 4-100.6 88.6-179 189.1-175.1 98.4 2.2 176.6 83.6 174.9 182.2 0.1 2.5 0 4.9-0.1 7.2zM1024.04149 56V610v0.4c1.3 43.8-33.1 80.4-76.8 81.6h-233l-48.6 82c-8.7 12.7-23.1 20.2-38.4 20H395.84149c-15.3 0.2-29.7-7.3-38.4-20l-48.6-82H76.64149c-43.8-1.5-78-38.2-76.6-82v-554.5c-1.3-43.8 33.1-80.3 76.8-81.5h870.8c43.7 1.5 77.9 38.2 76.4 82zM768.14149 343c0-5.7-0.2-11.4-0.5-17.2-9.5-148.4-137.2-261.1-285.4-251.6-148.2 9.5-260.7 137.5-251.2 286 9.5 148.4 137.2 261.1 285.4 251.6 143.5-4.7 256.2-125 251.7-268.8z"  horiz-adv-x="1024" />

    
    <glyph glyph-name="search" unicode="&#58931;" d="M1009.277019-45.97700299999997L818.881668 140.718439c159.696101 180.095603 149.396353 453.888919-23.199434 621.484828-183.595518 178.295647-475.588389 178.295647-659.183906 0C-41.79732 589.0074950000001-45.997217 303.914455 127.298552 125.61880799999994c2.999927-3.099924 6.099851-6.199849 9.199776-9.299773 166.095945-161.196065 424.389639-178.695637 610.785088-41.398989L940.078709-113.97534199999996c19.399526-18.699543 49.998779-18.699543 69.398306 0 18.799541 18.099558 19.399526 48.098826 1.299968 66.998364l-1.299968 1.299968-0.199996-0.299993zM97.89927 439.31115C93.79937 642.606186 255.095432 810.80208 458.390469 815.001977 661.585508 819.201875 829.781402 657.8058149999999 833.981299 454.510779S676.785137 83.01984800000002 473.590098 78.91994799999998c-2.499939-0.099998-5.099875-0.099998-7.599815-0.099997C264.895193 77.019995 100.299211 238.21605899999997 97.89927 439.31115z"  horiz-adv-x="1024" />

    
    <glyph glyph-name="watch-live" unicode="&#58932;" d="M1024 616.8c0.9 31.8-17.6 61-46.8 73.7-32 12.5-68.4 3.9-91.4-21.5l-101-100.9v61.5c-0.2 81-66 146.4-147 146.3H146.3C65.5 776 0 710.5 0 629.7v-491.4C0 57.5 65.5-8 146.3-8h491.5c81-0.2 146.8 65.3 147 146.3v49.5l100.9-100.3c16.3-17.4 39-27.4 62.9-27.6 9.8-0.2 19.5 1.5 28.5 5.1 29.2 12.7 47.7 41.9 46.8 73.7V616.8zM710.9 139.5c-0.2-40.2-32.9-72.7-73.1-72.7H146.3c-40.1 0.1-72.5 32.6-72.4 72.7V630.8c-0.1 40.1 32.3 72.6 72.4 72.7v-1.3h491.5c40.2 0 72.9-32.5 73.1-72.7v-490z m238.5-5.9c-4.4 0.4-8.3 2.6-11 6.1L784.8 292.4V463.3l153.6 153.5c2.5 3.6 6.6 5.9 11 6.1 1.8-1.5 2.7-3.8 2.2-6.1v-477c0.5-2.3-0.4-4.7-2.2-6.2z"  horiz-adv-x="1024" />

    
    <glyph glyph-name="delete" unicode="&#58933;" d="M744.7 430.6v-93.1H279.3v93.1h465.4zM512-34.89999999999998c231.4 0 418.9 187.6 418.9 418.9S743.4 802.9 512 802.9C280.6 802.9 93.1 615.4 93.1 384S280.6-34.89999999999998 512-34.89999999999998z m0-93.1C229.2-128 0 101.20000000000005 0 384S229.2 896 512 896s512-229.2 512-512-229.2-512-512-512z"  horiz-adv-x="1024" />

    
    <glyph glyph-name="expression" unicode="&#58934;" d="M513.000143-127.99779000000001C230.000792-128.29778899999997 0.301319 100.701685 0.00132 383.401036-0.298679 666.200387 228.900795 895.699861 511.800145 895.99986c135.999688 0.1 266.499388-53.699877 362.699168-149.799656 199.299543-200.39954 199.299543-523.998797 0-724.498338-95.599781-96.099779-225.799482-150.099656-361.49917-149.699656z m0 957.397803C266.800708 829.9000120000001 66.801167 630.900468 66.301168 384.901033S265.000712-60.89794400000005 511.200147-61.397943000000055c118.599728-0.2 232.399467 46.699893 316.199274 130.5997 173.299602 174.1996 173.299602 455.598954 0 629.798555C744.199612 782.6001200000001 630.999872 829.600012 513.000143 829.400013zM331.30056 244.501355c41.299905-59.599863 108.99975-95.399781 181.599583-95.99978 77.299823 3.499992 149.999656 38.099913 201.399538 95.99978 24.899943 0.1 45.199896-19.999954 45.299896-44.999897 0-0.999998 0-1.999995-0.1-2.999993-60.399861-73.499831-151.499652-114.899736-246.599434-111.999743-89.499795-7.299983-175.499597 35.899918-222.999488 111.999743-2.299995 24.099945 15.399965 45.599895 39.599909 47.89989 0.599999 0 1.199997 0 1.799996 0.1z m33.099924 303.999302c-34.69992 0.1-62.899856-27.899936-62.999856-62.499856-0.1-34.599921 27.899936-62.799856 62.599857-62.899856 34.69992-0.1 62.899856 27.899936 62.999855 62.499857v0.199999c-0.1 34.499921-28.099936 62.499857-62.599856 62.699856z m320.699264 0c-34.69992 0.1-62.799856-27.999936-62.899856-62.599856s27.999936-62.799856 62.599856-62.799856c34.69992-0.1 62.799856 27.999936 62.899856 62.599857v0.099999c0 34.599921-27.999936 62.599856-62.599856 62.699856z"  horiz-adv-x="1024" />

    
    <glyph glyph-name="full-screen" unicode="&#58935;" d="M943.099807-128H708.999855l108.099977 107.799978-202.399958 202.099958 99.39998 99.29998 202.299958-202.099958L1023.99979 186.89993500000003v-234.099952c0.1-44.499991-35.899993-80.699983-80.499983-80.799983h-0.4z m-228.999953 614.799874l-99.39998 99.29998L816.999832 788.199812 708.999855 895.99979h234.099952c44.599991 0.1 80.799983-35.799993 80.899983-80.399984V580.999855L916.399812 688.8998320000001 714.099854 486.799874z m-404.199918 0L107.599978 688.8998320000001 0 581.0998549999999V815.199807C0.1 859.799797 36.299993 895.99979 80.899983 895.99979H314.999935L206.899958 788.199812l202.299958-202.099958-99.29998-99.29998zM107.599978 79.19995800000004l202.299958 202.099958 99.39998-99.29998-202.399958-202.099958L314.999935-127.89999999999998H80.899983c-44.699991 0-80.899983 36.199993-80.899983 80.799983V186.99993500000005l107.599978-107.799977z"  horiz-adv-x="1024" />

    
    <glyph glyph-name="add" unicode="&#58936;" d="M558.7 430.3H745v-93.1H558.7v-186.1h-93.4V337.29999999999995H279v93.1h186.2v186h93.4v-186.1zM512-34.89999999999998c231.3-0.1 418.8 187.3 418.9 418.6 0.1 231.2-187.3 418.8-418.5 418.9-231.3 0.1-418.9-187.3-419-418.6v-0.2c0-231.2 187.4-418.7 418.6-418.7z m0-93.1C229.2-128 0 101.20000000000005 0 384S229.2 896 512 896s512-229.2 512-512-229.2-512-512-512z"  horiz-adv-x="1024" />

    
    <glyph glyph-name="live-time" unicode="&#58937;" d="M993 610.9c-5.8 2.6-12 3.9-18.3 3.9-15.7-0.5-30.7-7-41.7-18.3l-96.2-95v72.1c-0.5 57.3-47.2 103.3-104.4 103h-628C47.1 676.9 0.4 630.8 0 573.6v-379c0.5-57.3 47.2-103.3 104.4-103h627.9c57.3-0.3 104 45.8 104.4 103.1v61.8L933 162c10.9-11.5 26-18.1 41.8-18.4 6.3-0.2 12.6 0.8 18.4 3.1 19.2 8 31.4 27 30.8 47.8V563c0.6 20.8-11.7 39.9-31 47.9zM799.1 195.29999999999995c-0.3-36.6-30.2-66.2-66.8-66H104.4c-36.6-0.2-66.5 29.3-66.8 66V574.1c0.3 36.6 30.2 66.1 66.8 65.9l627.9-0.7c36.6 0.2 66.5-29.3 66.8-65.9v-378.1z m188 0c1.3-6.6-3-13.1-9.6-14.4-0.7-0.1-1.3-0.2-2-0.2-6.1 0.3-11.8 3.1-15.8 7.6L836.8 308.79999999999995v140l122.5 120.9c4 4.9 9.9 7.8 16.2 7.9 6.8-0.2 12.1-5.9 11.8-12.6 0-0.7-0.1-1.3-0.2-2v-367.7z m-743.3 91.2h48.8v195h-48.8v-195z m-97.5 195l-49.1-0.6V287l97.8-0.5v48.7h-48.8V481.5z m486.3-114.2l98.8 16.7-98.8 19.5 1.3 29.2h97.5l-2.1 48-144.1 0.8v-195l146.6 0.7-0.3 48H634l-1.4 32.1z m-193.8-32L390 481.5h-48.8l48.8-195h97.5l48.8 195h-48.8l-48.7-146.2"  horiz-adv-x="1024" />

    
    <glyph glyph-name="photo" unicode="&#58938;" d="M350.5 621.9h-1.8c-62.6-1-112.5-52.6-111.5-115.2s52.5-112.6 115.1-111.6c62.6 1 112.5 52.6 111.5 115.2-0.5 62.1-51.2 112.1-113.3 111.6zM928 794H96c-52.5 0.2-95.4-42-96-94.6v-630.8C0.6 16 43.4-26.200000000000045 96-26h832c52.6-0.3 95.5 42 96 94.6V699.4c-0.6 52.6-43.5 94.9-96 94.6zM743.1 429.2c-12.5 16-32.5 24.2-52.6 21.4-22.3 3.1-44.7-4.5-60.5-20.5L454 162.5c-7.1-11.4-19.6-18.2-33-17.9-14.3-0.2-27.8 6.5-36.3 17.9l-92.5 104.3c-13.3 17.2-33 28.4-54.6 30.9-22.5-3.5-42.7-15.8-56.1-34.2L79.9 138.79999999999995V682.9c0.2 17.6 14.5 31.7 32 31.6h800c17.5 0.1 31.9-14 32-31.6v-517.3l0.1-0.3-200.9 263.9z"  horiz-adv-x="1024" />

    
    <glyph glyph-name="re-upload" unicode="&#58939;" d="M820.5 207L1024 447.6H900.5c-34 217.9-222.9 377.7-443.4 375.1C214.9 832.7 10.4 644.4 0.4 402.2s178.1-446.8 420.3-456.8c9.7-0.4 19.4-0.5 29-0.2 106.1 1.6 208.6 39 290.7 106.2L646 164.60000000000002c-55.5-45.3-124.7-70.2-196.2-70.8-162.1-1.4-295.1 128.1-298 290.2 5.3 161.1 136.9 289.2 298 290.1 138 1.6 258.7-92.5 290.7-226.8H616.9L820.5 207z"  horiz-adv-x="1024" />

    
    <glyph glyph-name="right" unicode="&#58940;" d="M790.786387 383.975001c0-11.699429-4.49978-23.298862-13.399345-32.198428L311.009814-114.60065399999996c-17.799131-17.799131-46.597725-17.799131-64.396856 0-17.799131 17.799131-17.799131 46.597725 0 64.396855L680.791758 383.975001 246.612958 818.253796c-17.799131 17.799131-17.799131 46.597725 0 64.396856 17.799131 17.799131 46.597725 17.799131 64.396856 0l466.477223-466.477223c8.899565-8.899565 13.299351-20.498999 13.29935-32.198428z m0 0M21.023973 544.167179l-0.799961 0.799961-3.199843-3.199843-3.199844 3.199843-0.799961-0.799961 3.199844-3.199843-3.199844-3.199844 0.799961-0.799961 3.199844 3.199844 3.199843-3.199844 0.799961 0.799961-3.199843 3.199844 3.199843 3.199843z"  horiz-adv-x="1024" />

    
    <glyph glyph-name="delete1" unicode="&#58941;" d="M1024 791L921 893.2 512.1 486.3 103.1 893.2 0 791l408.9-407L0-23l103.1-102.2 408.9 407 408.9-407L1024-23 615.1 383.9 1024 791z"  horiz-adv-x="1024" />

    
    <glyph glyph-name="left" unicode="&#58942;" d="M233.213613 383.975001c0 11.699429 4.399785 23.298862 13.29935 32.198428L712.990186 882.650652c17.799131 17.799131 46.597725 17.799131 64.396856 0 17.799131-17.799131 17.799131-46.597725 0-64.396856L343.208242 383.975001l434.1788-434.1788c17.799131-17.799131 17.799131-46.597725 0-64.396855-17.799131-17.799131-46.597725-17.799131-64.396856 0L246.612958 351.776573c-8.899565 8.899565-13.399346 20.498999-13.399345 32.198428z m0 0M21.023973 544.167179l-0.799961 0.799961-3.199843-3.199843-3.199844 3.199843-0.799961-0.799961 3.199844-3.199843-3.199844-3.199844 0.799961-0.799961 3.199844 3.199844 3.199843-3.199844 0.799961 0.799961-3.199843 3.199844 3.199843 3.199843z"  horiz-adv-x="1024" />

    
    <glyph glyph-name="play" unicode="&#58943;" d="M256 896c70.7 0 128-57.3 128-128v-768c0-70.7-57.3-128-128-128s-128 57.3-128 128V768C128 838.7 185.3 896 256 896z m512 0c70.7 0 128-57.3 128-128v-768c0-70.7-57.3-128-128-128s-128 57.3-128 128V768C640 838.7 697.3 896 768 896z"  horiz-adv-x="1024" />

    
    <glyph glyph-name="suspend" unicode="&#58944;" d="M867.8 331.5l-656.4-447.8c-35.7-24.8-83.6-12-83.6 59.6V825.6c0 72.2 44.8 82.1 83.6 59.9l656.4-447.8c29.3-19.7 37.1-59.5 17.4-88.8-4.6-6.9-10.5-12.8-17.4-17.4z"  horiz-adv-x="1024" />

    
    <glyph glyph-name="horn" unicode="&#58945;" d="M627.2122-93.29999999999995v70.2c224.9 48 368.2 269.2 320.2 494.1-34.3 160.5-159.7 285.9-320.2 320.2V861.3c263.6-49 437.5-302.5 388.5-566.1C979.0122 97.79999999999995 824.6122-56.60000000000002 627.2122-93.29999999999995z m-165.1 67.8L165.2122 179.20000000000005h-99c-37 0.5-66.7 30.9-66.2 68V520.5c-0.7 37 28.8 67.6 65.8 68.2h99.4l296.9 204.8c37-0.4 66.7-30.8 66.2-67.8v-682.9c0.6-37-28.9-67.6-65.9-68.2-0.1-0.1-0.2-0.1-0.3-0.1zM825.8122 384c1.1-116.8-83.3-216.9-198.6-235.4v68.3c92.4 21.6 149.7 113.9 128.1 206.3-14.9 63.6-64.5 113.3-128.1 128.1v68.3C742.6122 601 827.0122 500.8 825.8122 384z"  horiz-adv-x="1024" />

    
    <glyph glyph-name="mute" unicode="&#58946;" d="M462.9122 794.2L165.5122 589.1H65.9122c-37.1-0.7-66.6-31.3-65.9-68.4v-273.8c-0.5-37.1 29.2-67.6 66.3-68.1h99.1l297.4-205.1h0.3c37.1 0.6 66.7 31.3 66 68.4V725.9v0.4c0.5 37.1-29.1 67.5-66.2 67.9zM876.6122 379l136 136c15.3 15.3 15.2 40.1-0.1 55.3-15.3 15.3-40.1 15.2-55.3-0.1l-136-135.9L681.0122 574.5c-15.3 15.3-40 15.3-55.3 0.1-15.3-15.3-15.3-40-0.1-55.3L765.9122 379 625.6122 238.70000000000005c-15.3-15.3-15.2-40.1 0.1-55.3 15.3-15.3 40.1-15.2 55.3 0.1l140.3 140.2 136-135.9c15.3-15.3 40-15.3 55.3-0.1 15.3 15.3 15.3 40 0.1 55.3L876.6122 379z"  horiz-adv-x="1024" />

    
    <glyph glyph-name="playback-point" unicode="&#58947;" d="M511.93-128C794.74-128 1024 101.23000000000002 1024 384S794.74 896 511.93 896C233.23 896 6.54 673.39 0 396.3v-24.61C6.54 94.61000000000001 233.23-128 511.93-128z m0 716.8c113.12 0 204.83-91.69 204.83-204.8 0-73.16-39.04-140.78-102.42-177.36-63.37-36.59-141.46-36.59-204.83 0C346.14 243.22000000000003 307.1 310.83000000000004 307.1 384c0 113.11 91.7 204.8 204.83 204.8z"  horiz-adv-x="1024" />

    
    <glyph glyph-name="photo1" unicode="&#58948;" d="M1008.89-92.28999999999996c-6.69 53.16-22.56 103.82-46.8 152.81-4.18 9.14-9.19 19.1-15.04 27.41-22.56 38.2-50.14 73.08-82.73 105.47-6.69 6.64-14.21 14.12-21.73 19.93-52.64 46.51-114.48 80.56-180.5 101.32 12.53 6.64 23.4 14.12 34.26 21.59 12.54 9.14 24.24 19.93 35.93 29.9 59.34 58.97 91.93 137.03 91.93 219.25 0 83.05-32.59 161.12-91.93 219.25C674.62 861.95 597.74 894.34 515.84 896h-6.68a308.866 308.866 0 0 1-216.44-91.35c-59.33-58.96-91.92-137.03-91.92-219.25a306.278 306.278 0 0 1 91.92-219.25c10.86-10.8 23.4-21.59 35.93-29.9 10.86-7.47 22.56-15.78 34.26-21.59-66.02-20.76-126.19-54.81-180.5-101.32-7.52-6.64-15.04-13.29-21.73-19.93a568.029 568.029 0 0 1-83.57-105.47c-5.01-8.31-10.03-18.27-15.04-27.41-23.4-48.17-40.11-98.83-46.8-152.81-2.51-17.44 9.19-32.39 26.74-35.71h7.52c12.66 2.69 22.31 12.95 24.24 25.75 15.04 98 61.84 187.69 129.53 255.79C283.53 234.10000000000002 393 285.59000000000003 510.83 285.59000000000003h0.84c117.83 0 227.3-50.66 307.52-132.05 67.69-68.1 115.33-157.79 129.53-255.79 1.67-13.29 12.54-23.26 24.24-25.75h7.52c19.22 2.49 30.08 18.27 28.41 35.71z m-497.22 430.2H510c-117 0.83-220.62 82.22-249.03 189.35 0 0.83-0.84 2.49-0.84 3.32a246.24 246.24 0 0 0-6.69 54.81c0.06 18.74 2.31 37.42 6.69 55.64 0 0.83 0.84 2.49 0.84 3.32 28.41 111.3 133.7 199.33 251.53 199.33h1.67c117 0 223.13-88.03 251.54-199.32 0-0.83 0.84-2.49 0.84-3.32a253.08 253.08 0 0 0 6.68-55.64 229.06 229.06 0 0 0-6.68-54.81c0-0.83-0.84-2.49-0.84-3.32C737.3 419.3 632.84 338.74 516.68 337.90999999999997h-5.01z"  horiz-adv-x="1024" />

    
    <glyph glyph-name="sign-out" unicode="&#58949;" d="M212.3107 626.651878a377.876365 377.876365 0 0 1-76.459467-120.42916 382.315334 382.315334 0 0 1-19.119867-206.918557 387.563298 387.563298 0 0 1 94.889338-189.39868 424.345041 424.345041 0 0 1 34.129762-33.059769c167.518832-142.769005 418.127085-127.70911 567.296045 34.079762 142.999003 157.178904 131.279085 400.327209-26.159818 543.076213a384.759317 384.759317 0 0 1-51.659639 39.439725 54.077623 54.077623 0 0 0-15.699891 37.959736c1.259991 30.539787 26.719814 54.48962 57.3396 53.909624 7.999944-0.06 15.899889-1.779988 23.209838-5.039965a576.53598 576.53598 0 0 0 51.199643-38.579731c205.968564-174.388784 231.318387-482.456636 56.649605-688.085202-3.999972-4.709967-8.089944-9.349935-12.269914-13.909903-190.368673-205.728566-509.476448-224.678433-722.934959-42.939701-205.968564 174.398784-231.328387 482.466636-56.649605 688.095202 3.999972 4.709967 8.089944 9.349935 12.269914 13.909903a504.85248 504.85248 0 0 0 99.669305 84.379412 57.288601 57.288601 0 0 0 23.209838 3.879973c29.319796-0.619996 52.589633-24.859827 51.969638-54.139623-0.01-0.699995-0.04-1.38999-0.079999-2.089985a53.859624 53.859624 0 0 0-20.479858-39.329726 536.496259 536.496259 0 0 1-70.319509-64.679549v-0.129999zM511.99861 407.873404c-32.629772-0.229998-59.399586 25.75982-60.069581 58.339593V836.020418C451.929029 869.150187 478.828841 896 511.99861 896s60.069581-26.849813 60.069581-59.979582v-369.667422c-0.379997-32.669772-27.20981-58.84959-59.919582-58.479592H511.99861"  horiz-adv-x="1024" />

    
    <glyph glyph-name="space" unicode="&#58950;" d="M951.63177 675.71L576.17177 879.61a133.832 133.832 0 0 1-128.34 0L72.37177 675.71C27.56177 651.1-0.20823 603.96 0.00177 552.8399999999999v-542.2c-0.38-75.9 60.63-137.86 136.54-138.64h750.92c76.01 0.79 137.06 62.91 136.53 138.91V553.1800000000001c0.09 51-27.66 97.98-72.36 122.53zM921.60177 45.73000000000002c0.27-38.01-30.26-69.08-68.27-69.49H170.67177c-38.02 0.38-68.57 31.47-68.27 69.49V546.0799999999999c-0.26 25.6 13.67 49.24 36.18 61.44l341.33 185.33a66.89 66.89 0 0 0 64.17 0l341.33-185.33a69.053 69.053 0 0 0 36.18-61.44v-500.35zM699.73177 184.76999999999998H324.27177c-28.78-1.04-51.27-25.22-50.23-54 0.98-27.32 22.91-49.24 50.23-50.23h375.46c28.78 1.04 51.27 25.22 50.23 54-0.98 27.32-22.9 49.25-50.23 50.23z"  horiz-adv-x="1024" />

    
    <glyph glyph-name="course-information" unicode="&#58951;" d="M267.002905 588.712153c-18.859776-0.04-34.179595 15.20982-34.219595 34.069596s15.20982 34.179595 34.069596 34.219594H756.997095c18.859776 0.04 34.179595-15.20982 34.219595-34.069596s-15.20982-34.179595-34.069596-34.219594H267.002905zM267.002905 349.71498599999995c-18.859776-0.04-34.179595 15.20982-34.219595 34.069597-0.04 18.859776 15.20982 34.179595 34.069596 34.219594H756.997095c18.859776 0.04 34.179595-15.20982 34.219595-34.069596 0.04-18.859776-15.20982-34.179595-34.069596-34.219595H267.002905zM267.002905 110.72781999999995c-18.859776-0.04-34.179595 15.20982-34.219595 34.069596s15.20982 34.179595 34.069596 34.219594H407.001245c18.859776 0.04 34.179595-15.20982 34.219594-34.069596 0.04-18.859776-15.20982-34.179595-34.069596-34.219594H267.002905zM784.186773 28.998788999999988l51.339391 45.189464c14.729825 12.359853 36.589566 10.879871 49.509413-3.35996 12.369853-14.229831 10.849871-35.799576-3.379959-48.169429l-0.03-0.03-168.448003-142.258313a34.57959 34.57959 0 0 0-22.76973-8.369901H165.134112C105.594818-127.98934999999994 57.255391-79.85992099999999 57.005394-20.330626000000052V788.339786C57.255391 847.869081 105.594818 895.99851 165.134112 895.99851H858.295894C918.015186 896.308506 966.67461 848.159077 966.994606 788.449785v-602.22286c-0.339996-19.159773-16.119809-34.429592-35.279582-34.139596-18.849777-0.309996-34.389592 14.719825-34.709588 33.569602-0.01 0.189998-0.01 0.379995-0.01 0.569994V788.339786c0.159998 21.549745-17.149797 39.159536-38.699542 39.379533H165.144112c-21.359747-0.459995-38.349545-18.019786-38.129548-39.379533v-808.950409c-0.219997-21.349747 16.779801-38.909539 38.129548-39.379533h512.183928l106.858733 88.988945zM721.637515-86.71983899999998c0-18.859776-15.279819-34.139595-34.139596-34.149596h-0.569993c-19.149773-0.249997-34.909586 14.999822-35.279582 34.139596V111.98780499999998c0.249997 59.709292 48.869421 107.908721 108.578713 107.658723h172.557954c18.859776 0.04 34.179595-15.20982 34.219595-34.069596 0.04-18.859776-15.20982-34.179595-34.069596-34.219594h-172.597954c-21.549745-0.219997-38.859539-17.829789-38.699541-39.379533v-198.697644"  horiz-adv-x="1024" />

    
    <glyph glyph-name="Independent-course" unicode="&#58952;" d="M419 896h186v-1024H419z"  horiz-adv-x="1024" />

    
    <glyph glyph-name="cross-region" unicode="&#58953;" d="M256 896v-768h768V896H256z m597.33-597.33H426.67V725.33h426.67v-426.66zM0 640h768v-768H0z"  horiz-adv-x="1024" />

    


  </font>
</defs>
</svg>
